<?xml version="1.0" encoding="UTF-8" standalone="no"?><svg xmlns="http://www.w3.org/2000/svg" xmlns:xlink="http://www.w3.org/1999/xlink" contentScriptType="application/ecmascript" contentStyleType="text/css" height="363px" preserveAspectRatio="none" style="width:306px;height:363px;background:#FFFFFF;" version="1.1" viewBox="0 0 306 363" width="306px" zoomAndPan="magnify"><defs><filter height="300%" id="fmsivu486r0zz" width="300%" x="-1" y="-1"><feGaussianBlur result="blurOut" stdDeviation="2.0"/><feColorMatrix in="blurOut" result="blurOut2" type="matrix" values="0 0 0 0 0 0 0 0 0 0 0 0 0 0 0 0 0 0 .4 0"/><feOffset dx="4.0" dy="4.0" in="blurOut2" result="blurOut3"/><feBlend in="SourceGraphic" in2="blurOut3" mode="normal"/></filter></defs><g><ellipse cx="128.5" cy="16" fill="#000000" filter="url(#fmsivu486r0zz)" rx="10" ry="10" style="stroke:none;stroke-width:1.0;"/><rect fill="#FEFECE" filter="url(#fmsivu486r0zz)" height="34.1328" rx="12.5" ry="12.5" style="stroke:#A80036;stroke-width:1.5;" width="95" x="81" y="67"/><text fill="#000000" font-family="sans-serif" font-size="12" lengthAdjust="spacing" textLength="75" x="91" y="88.6016">Initialisierung</text><polygon fill="#FEFECE" filter="url(#fmsivu486r0zz)" points="128.5,142,140.5,154,128.5,166,116.5,154,128.5,142" style="stroke:#A80036;stroke-width:1.5;"/><rect fill="#FEFECE" filter="url(#fmsivu486r0zz)" height="34.1328" rx="12.5" ry="12.5" style="stroke:#A80036;stroke-width:1.5;" width="94" x="38.5" y="240"/><text fill="#000000" font-family="sans-serif" font-size="12" lengthAdjust="spacing" textLength="74" x="48.5" y="261.6016">Eine Aktivität</text><rect fill="#FEFECE" filter="url(#fmsivu486r0zz)" height="34.1328" rx="12.5" ry="12.5" style="stroke:#A80036;stroke-width:1.5;" width="139" x="7" y="315"/><text fill="#000000" font-family="sans-serif" font-size="12" lengthAdjust="spacing" textLength="119" x="17" y="336.6016">Eine andere Aktivität</text><ellipse cx="176.5" cy="332" filter="url(#fmsivu486r0zz)" rx="10" ry="10" style="stroke:#000000;stroke-width:1.0;fill:none;"/><ellipse cx="177" cy="332.5" fill="#000000" rx="6" ry="6" style="stroke:none;stroke-width:1.0;"/><rect fill="#FEFECE" filter="url(#fmsivu486r0zz)" height="34.1328" rx="12.5" ry="12.5" style="stroke:#A80036;stroke-width:1.5;" width="104" x="119.5" y="186"/><text fill="#000000" font-family="sans-serif" font-size="12" lengthAdjust="spacing" textLength="84" x="129.5" y="207.6016">Etwas anderes</text><!--MD5=[863f41c7c19c0889933681775d8f1704]
link start to Initialisierung--><path d="M128.5,26.18 C128.5,35.27 128.5,49.53 128.5,61.49 " fill="none" id="start-to-Initialisierung" style="stroke:#A80036;stroke-width:1.0;"/><polygon fill="#A80036" points="128.5,66.79,132.5,57.79,128.5,61.79,124.5,57.79,128.5,66.79" style="stroke:#A80036;stroke-width:1.0;"/><!--MD5=[9bb7c9dff03a6ab74ac38da8374ef45a]
link Initialisierung to #5--><path d="M128.5,101.12 C128.5,111.92 128.5,126.08 128.5,136.88 " fill="none" id="Initialisierung-to-#5" style="stroke:#A80036;stroke-width:1.0;"/><polygon fill="#A80036" points="128.5,141.89,132.5,132.89,128.5,136.89,124.5,132.89,128.5,141.89" style="stroke:#A80036;stroke-width:1.0;"/><text fill="#000000" font-family="sans-serif" font-size="11" lengthAdjust="spacing" textLength="42" x="75.7375" y="131.4881">Ein Test</text><!--MD5=[e0dfcd998e4db71cf9b328904420bfd3]
link #5 to Eine Aktivität--><path d="M120.34,158.12 C110.04,162.55 92.8,171.75 85.5,186 C77.86,200.93 78.46,220.12 80.63,234.62 " fill="none" id="#5-to-Eine Aktivität" style="stroke:#A80036;stroke-width:1.0;"/><polygon fill="#A80036" points="81.49,239.74,83.9425,230.2014,80.6611,234.8092,76.0533,231.5277,81.49,239.74" style="stroke:#A80036;stroke-width:1.0;"/><text fill="#000000" font-family="sans-serif" font-size="11" lengthAdjust="spacing" textLength="22" x="86.5" y="207.6348">true</text><!--MD5=[91ce271c0d669c8c1959bfd2e3bafd44]
link Eine Aktivität to Eine andere Aktivität--><path d="M83.5,274.2 C82.21,284.69 80.51,298.46 79.11,309.82 " fill="none" id="Eine Aktivität-to-Eine andere Aktivität" style="stroke:#A80036;stroke-width:1.0;"/><polygon fill="#A80036" points="78.49,314.84,83.5664,306.4002,79.1049,309.878,75.6272,305.4164,78.49,314.84" style="stroke:#A80036;stroke-width:1.0;"/><!--MD5=[ddea4e4e24c54ba72015020e1fa4cba2]
link Eine andere Aktivität to end--><path d="M146.03,332 C150.93,332 155.82,332 160.72,332 " fill="none" id="Eine andere Aktivität-to-end" style="stroke:#A80036;stroke-width:1.0;"/><polygon fill="#A80036" points="166.03,332,157.03,328,161.03,332,157.03,336,166.03,332" style="stroke:#A80036;stroke-width:1.0;"/><!--MD5=[ccb2251ba9d55859bc42f8bfc48e79a6]
link #5 to Etwas anderes--><path d="M133.77,160.76 C138.63,166.07 146.13,174.27 153.16,181.96 " fill="none" id="#5-to-Etwas anderes" style="stroke:#A80036;stroke-width:1.0;"/><polygon fill="#A80036" points="156.57,185.68,153.4469,176.3394,153.1953,181.9907,147.544,181.739,156.57,185.68" style="stroke:#A80036;stroke-width:1.0;"/><text fill="#000000" font-family="sans-serif" font-size="11" lengthAdjust="spacing" textLength="25" x="145.89" y="170.5548">false</text><!--MD5=[768e51cec0b5109225f25755665f597c]
link Etwas anderes to end--><path d="M172.13,220.08 C173.12,245.05 174.99,292.73 175.93,316.61 " fill="none" id="Etwas anderes-to-end" style="stroke:#A80036;stroke-width:1.0;"/><polygon fill="#A80036" points="176.14,321.88,179.776,312.7269,175.9396,316.884,171.7825,313.0476,176.14,321.88" style="stroke:#A80036;stroke-width:1.0;"/><text fill="#000000" font-family="sans-serif" font-size="11" lengthAdjust="spacing" textLength="124" x="174.5" y="261.6348">Beenden des Prozesses</text><!--MD5=[2c4d45e41951809ecddb5ab534c88ade]
@startuml
(*) - -> "Initialisierung"
if "Ein Test" then
- ->[true] "Eine Aktivität"
- -> "Eine andere Aktivität"
-right-> (*)
else
->[false] "Etwas anderes"
- ->[Beenden des Prozesses] (*)
endif
@enduml

PlantUML version 1.2021.12(Tue Oct 05 18:01:58 CEST 2021)
(GPL source distribution)
Java Runtime: OpenJDK Runtime Environment
JVM: OpenJDK 64-Bit Server VM
Default Encoding: UTF-8
Language: de
Country: DE
--></g></svg>
