<?xml version="1.0" encoding="UTF-8" standalone="no"?><svg xmlns="http://www.w3.org/2000/svg" xmlns:xlink="http://www.w3.org/1999/xlink" contentScriptType="application/ecmascript" contentStyleType="text/css" height="268px" preserveAspectRatio="none" style="width:325px;height:268px;background:#FFFFFF;" version="1.1" viewBox="0 0 325 268" width="325px" zoomAndPan="magnify"><defs><filter height="300%" id="fldb5r2mq7539" width="300%" x="-1" y="-1"><feGaussianBlur result="blurOut" stdDeviation="2.0"/><feColorMatrix in="blurOut" result="blurOut2" type="matrix" values="0 0 0 0 0 0 0 0 0 0 0 0 0 0 0 0 0 0 .4 0"/><feOffset dx="4.0" dy="4.0" in="blurOut2" result="blurOut3"/><feBlend in="SourceGraphic" in2="blurOut3" mode="normal"/></filter></defs><g><ellipse cx="164.5" cy="16" fill="#000000" filter="url(#fldb5r2mq7539)" rx="10" ry="10" style="stroke:none;stroke-width:1.0;"/><rect fill="#000000" filter="url(#fldb5r2mq7539)" height="8" style="stroke:none;stroke-width:1.0;" width="80" x="124.5" y="66"/><rect fill="#FEFECE" filter="url(#fldb5r2mq7539)" height="34.1328" rx="12.5" ry="12.5" style="stroke:#A80036;stroke-width:1.5;" width="153" x="7" y="114"/><text fill="#000000" font-family="sans-serif" font-size="12" lengthAdjust="spacing" textLength="133" x="17" y="135.6016">Erste parallele Aktivität</text><rect fill="#000000" filter="url(#fldb5r2mq7539)" height="8" style="stroke:none;stroke-width:1.0;" width="80" x="124.5" y="188"/><rect fill="#FEFECE" filter="url(#fldb5r2mq7539)" height="34.1328" rx="12.5" ry="12.5" style="stroke:#A80036;stroke-width:1.5;" width="131" x="180" y="114"/><text fill="#000000" font-family="sans-serif" font-size="12" lengthAdjust="spacing" textLength="111" x="190" y="135.6016">Parallele Aktivität 2</text><ellipse cx="164.5" cy="246" filter="url(#fldb5r2mq7539)" rx="10" ry="10" style="stroke:#000000;stroke-width:1.0;fill:none;"/><ellipse cx="165" cy="246.5" fill="#000000" rx="6" ry="6" style="stroke:none;stroke-width:1.0;"/><!--MD5=[6396badacac00578348ddb3cf20ba689]
link start to B1--><path d="M164.5,26.06 C164.5,35.8 164.5,51.15 164.5,60.62 " fill="none" id="start-to-B1" style="stroke:#A80036;stroke-width:1.0;"/><polygon fill="#A80036" points="164.5,65.87,168.5,56.87,164.5,60.87,160.5,56.87,164.5,65.87" style="stroke:#A80036;stroke-width:1.0;"/><!--MD5=[5a0d91c31d39be10a74c37cc4a23b00b]
link B1 to Erste parallele Aktivität--><path d="M160.15,74.17 C150.74,81.03 127.88,97.68 109.56,111.02 " fill="none" id="B1-to-Erste parallele Aktivität" style="stroke:#A80036;stroke-width:1.0;"/><polygon fill="#A80036" points="105.49,113.99,115.1204,111.9274,109.5324,111.0474,110.4124,105.4594,105.49,113.99" style="stroke:#A80036;stroke-width:1.0;"/><!--MD5=[633b17aeafcdbfff01fe3dd4a795ced7]
link Erste parallele Aktivität to B2--><path d="M105.63,148.12 C122.34,160.29 144.34,176.31 156.15,184.91 " fill="none" id="Erste parallele Aktivität-to-B2" style="stroke:#A80036;stroke-width:1.0;"/><polygon fill="#A80036" points="160.27,187.92,155.3476,179.3894,156.2276,184.9774,150.6396,185.8574,160.27,187.92" style="stroke:#A80036;stroke-width:1.0;"/><!--MD5=[1cdc1f76ffef463297dcc9e1878ebd59]
link B1 to Parallele Aktivität 2--><path d="M168.85,74.17 C178.26,81.03 201.12,97.68 219.44,111.02 " fill="none" id="B1-to-Parallele Aktivität 2" style="stroke:#A80036;stroke-width:1.0;"/><polygon fill="#A80036" points="223.51,113.99,218.5876,105.4594,219.4676,111.0474,213.8796,111.9274,223.51,113.99" style="stroke:#A80036;stroke-width:1.0;"/><!--MD5=[f615882f7f3ccd67da317eea9330e71f]
link Parallele Aktivität 2 to B2--><path d="M223.37,148.12 C206.66,160.29 184.66,176.31 172.85,184.91 " fill="none" id="Parallele Aktivität 2-to-B2" style="stroke:#A80036;stroke-width:1.0;"/><polygon fill="#A80036" points="168.73,187.92,178.3604,185.8574,172.7724,184.9774,173.6524,179.3894,168.73,187.92" style="stroke:#A80036;stroke-width:1.0;"/><!--MD5=[67dd31f82dae465fe6f080fdaa978b88]
link B2 to end--><path d="M164.5,196.1 C164.5,202.77 164.5,218.87 164.5,230.78 " fill="none" id="B2-to-end" style="stroke:#A80036;stroke-width:1.0;"/><polygon fill="#A80036" points="164.5,235.91,168.5,226.91,164.5,230.91,160.5,226.91,164.5,235.91" style="stroke:#A80036;stroke-width:1.0;"/><!--MD5=[cebb6fad6f01ce5242c90bb28d3bb191]
@startuml
(*) - -> ===B1===
- -> "Erste parallele Aktivität"
- -> ===B2===
===B1=== - -> "Parallele Aktivität 2"
- -> ===B2===
- -> (*)
@enduml

PlantUML version 1.2021.12(Tue Oct 05 18:01:58 CEST 2021)
(GPL source distribution)
Java Runtime: OpenJDK Runtime Environment
JVM: OpenJDK 64-Bit Server VM
Default Encoding: UTF-8
Language: de
Country: DE
--></g></svg>
