<?xml version="1.0" encoding="UTF-8" standalone="no"?><svg xmlns="http://www.w3.org/2000/svg" xmlns:xlink="http://www.w3.org/1999/xlink" contentScriptType="application/ecmascript" contentStyleType="text/css" height="195px" preserveAspectRatio="none" style="width:216px;height:195px;background:#FFFFFF;" version="1.1" viewBox="0 0 216 195" width="216px" zoomAndPan="magnify"><defs><filter height="300%" id="fjvs2jlb6ichv" width="300%" x="-1" y="-1"><feGaussianBlur result="blurOut" stdDeviation="2.0"/><feColorMatrix in="blurOut" result="blurOut2" type="matrix" values="0 0 0 0 0 0 0 0 0 0 0 0 0 0 0 0 0 0 .4 0"/><feOffset dx="4.0" dy="4.0" in="blurOut2" result="blurOut3"/><feBlend in="SourceGraphic" in2="blurOut3" mode="normal"/></filter></defs><g><ellipse cx="105" cy="20" fill="#000000" filter="url(#fjvs2jlb6ichv)" rx="10" ry="10" style="stroke:none;stroke-width:1.0;"/><rect fill="#000000" filter="url(#fjvs2jlb6ichv)" height="6" rx="2.5" ry="2.5" style="stroke:#000000;stroke-width:1.0;" width="188" x="11" y="50"/><rect fill="#FEFECE" filter="url(#fjvs2jlb6ichv)" height="34.1328" rx="12.5" ry="12.5" style="stroke:#A80036;stroke-width:1.5;" width="68" x="23" y="76"/><text fill="#000000" font-family="sans-serif" font-size="12" lengthAdjust="spacing" textLength="48" x="33" y="97.6016">Aktion 1</text><rect fill="#FEFECE" filter="url(#fjvs2jlb6ichv)" height="34.1328" rx="12.5" ry="12.5" style="stroke:#A80036;stroke-width:1.5;" width="68" x="119" y="76"/><text fill="#000000" font-family="sans-serif" font-size="12" lengthAdjust="spacing" textLength="48" x="129" y="97.6016">Aktion 2</text><rect fill="#000000" filter="url(#fjvs2jlb6ichv)" height="6" rx="2.5" ry="2.5" style="stroke:#000000;stroke-width:1.0;" width="188" x="11" y="130.1328"/><ellipse cx="105" cy="167.1328" fill="#FFFFFF" filter="url(#fjvs2jlb6ichv)" rx="11" ry="11" style="stroke:#000000;stroke-width:1.0;"/><ellipse cx="105" cy="167.1328" fill="#000000" rx="6" ry="6" style="stroke:#7F7F7F;stroke-width:1.0;"/><line style="stroke:#A80036;stroke-width:1.5;" x1="57" x2="57" y1="56" y2="76"/><polygon fill="#A80036" points="53,66,57,76,61,66,57,70" style="stroke:#A80036;stroke-width:1.0;"/><line style="stroke:#A80036;stroke-width:1.5;" x1="153" x2="153" y1="56" y2="76"/><polygon fill="#A80036" points="149,66,153,76,157,66,153,70" style="stroke:#A80036;stroke-width:1.0;"/><line style="stroke:#A80036;stroke-width:1.5;" x1="57" x2="57" y1="110.1328" y2="130.1328"/><polygon fill="#A80036" points="53,120.1328,57,130.1328,61,120.1328,57,124.1328" style="stroke:#A80036;stroke-width:1.0;"/><line style="stroke:#A80036;stroke-width:1.5;" x1="153" x2="153" y1="110.1328" y2="130.1328"/><polygon fill="#A80036" points="149,120.1328,153,130.1328,157,120.1328,153,124.1328" style="stroke:#A80036;stroke-width:1.0;"/><line style="stroke:#A80036;stroke-width:1.5;" x1="105" x2="105" y1="30" y2="50"/><polygon fill="#A80036" points="101,40,105,50,109,40,105,44" style="stroke:#A80036;stroke-width:1.0;"/><line style="stroke:#A80036;stroke-width:1.5;" x1="105" x2="105" y1="136.1328" y2="156.1328"/><polygon fill="#A80036" points="101,146.1328,105,156.1328,109,146.1328,105,150.1328" style="stroke:#A80036;stroke-width:1.0;"/><!--MD5=[15a06ee02cc5fd3605fe7b4cfd155d0c]
@startuml
start
fork
  :Aktion 1;
fork again
  :Aktion 2;
end fork
stop
@enduml

PlantUML version 1.2021.12(Tue Oct 05 18:01:58 CEST 2021)
(GPL source distribution)
Java Runtime: OpenJDK Runtime Environment
JVM: OpenJDK 64-Bit Server VM
Default Encoding: UTF-8
Language: de
Country: DE
--></g></svg>